# xmcd
#
# Track frame offsets: 
#        150
#        10141
#        25921
#        40236
#        55388
#        74805
#        88437
#        108591
#        117562
#        137718
#        151352
#        170189
#        185921
#
# Disc length: 2703 seconds
#
# Revision: 2
# Processed by: cddbd v1.5.2PL0 Copyright (c) Steve Scherf et al.
# Submitted via: ExactAudioCopy v0.95a5
#
DISCID=ca0a8d0d
DTITLE=The Hangdogs - Wallace '48
DYEAR=2003
DGENRE=Country
TTITLE0=Wallace '48
TTITLE1=Waiting For The Stars To Fall
TTITLE2=Memo From The Head Office
TTITLE3=She's Leaving You
TTITLE4=Midnight Train To Georgia
TTITLE5=Drink Yourself To Death
TTITLE6=Come Back Darlene
TTITLE7=Serious Guy
TTITLE8=Early To Bed
TTITLE9=Alcohol of Fame
TTITLE10=Porch Swing
TTITLE11=Goodnight, Texas
TTITLE12=Long Black Veil
EXTD=
EXTT0=
EXTT1=
EXTT2=
EXTT3=
EXTT4=
EXTT5=
EXTT6=
EXTT7=
EXTT8=
EXTT9=
EXTT10=
EXTT11=
EXTT12=
PLAYORDER=
